# xmcd
#
# Track frame offsets: 
#        150
#        11087
#        22150
#        39495
#        54312
#        65817
#        77585
#        90990
#        122097
#        144757
#        154757
#
# Disc length: 2394 seconds
#
# Revision: 3
# Processed by: cddbd v1.5.2PL0 Copyright (c) Steve Scherf et al.
# Submitted via: ExactAudioCopy v0.95b4
#
DISCID=8509580b
DTITLE=Yardbirds - ...where the ACTION is! - Disc-2 (Stockholm '67 and B
DTITLE=onus tracks - America '66)
DYEAR=1997
DGENRE=Rock
TTITLE0=Shapes of Things
TTITLE1=Heart Full of Soul
TTITLE2=Mr. You're a Better Man Than I
TTITLE3=You Go Your Way
TTITLE4=Over Under Sideways Down
TTITLE5=Little Games
TTITLE6=My Baby
TTITLE7=I'm A Man
TTITLE8=Shapes of Things (Bonus track - America '66)
TTITLE9=For Your Love (Bonus track - America '66)
TTITLE10=Hang On Sloopy (Bonus track - America '66)
EXTD=Tracks 1-8 Stockholm 4/1967\nTracks 9-11 1966 YEAR: 2000
EXTT0=
EXTT1=
EXTT2=
EXTT3=
EXTT4=
EXTT5=
EXTT6=
EXTT7=
EXTT8=
EXTT9=
EXTT10=
PLAYORDER=
